<svg width="93" height="14" viewBox="0 0 93 14" fill="none" xmlns="http://www.w3.org/2000/svg">
<path fill-rule="evenodd" clip-rule="evenodd" d="M54.8986 0.392126C56.1076 0.926714 56.6416 1.93346 56.808 3.2192L55.0417 3.47804C54.9923 3.30309 54.9519 3.13335 54.8967 2.96881C54.4902 1.75266 53.3267 1.71234 52.6256 2.05832C51.803 2.45959 51.6209 3.65818 52.2608 4.37487C52.5652 4.71695 52.9593 4.92116 53.3729 5.0948L53.9485 5.33543C54.524 5.57736 55.0931 5.8323 55.6225 6.17504C56.7749 6.92294 57.2412 7.99211 57.0922 9.33183C56.9362 10.7717 56.1505 11.7472 54.7822 12.2161C53.8041 12.5553 52.74 12.5533 51.7633 12.2103C50.5855 11.809 49.8877 10.9701 49.6561 9.74806C49.6048 9.50808 49.5716 9.13608 49.5716 9.13608L51.364 8.84342C51.364 8.84342 51.4108 9.08665 51.4362 9.20111C51.7366 10.5493 53.4126 11.1327 54.498 10.2644C55.268 9.6479 55.2628 8.30103 54.4512 7.67279C54.0862 7.4068 53.6911 7.1848 53.274 7.01139C52.5203 6.6745 51.7652 6.34738 51.0973 5.84271C49.4103 4.56932 49.6379 2.30025 50.4964 1.27595C50.9197 0.766754 51.4946 0.406062 52.1372 0.246448C53.0698 -0.000684749 54.0037 -0.000684749 54.8986 0.392126ZM19.6731 0.173609C20.2824 0.161577 20.8885 0.265528 21.4589 0.479924C22.415 0.86363 23.0399 1.5478 23.3319 2.53113C23.6091 3.46624 23.6118 4.46126 23.3397 5.39787C23.0842 6.3038 22.5366 6.96586 21.6749 7.38404L21.5103 7.46013L23.6201 12.3527H23.3248C22.6458 12.3508 21.6742 12.3462 21.5786 12.3456H21.5714L19.6256 7.7736H18.109V12.3351H16.0617V0.178161H16.1488L18.6215 0.17491H19.6737L19.6731 0.173609ZM6.1458 0.182063V1.98939H2.02844V5.40567C2.10713 5.41087 5.53708 5.40567 5.53708 5.40567V7.23511H2.02844V12.3404H0V0.181413H6.1458V0.182063ZM69.0444 0.179462V5.42648H72.5237V0.182063H74.5522V12.3371H72.5328V7.23185H69.0535V12.3371H67.0276V0.179462H69.0444ZM89.6943 0.179462C89.6943 0.179462 92.3731 12.2142 92.3978 12.3358H90.3388C90.1918 11.6107 89.8224 9.75066 89.8224 9.75066H86.5251C86.5251 9.75066 86.0153 12.2558 85.9964 12.3351H83.9335C84.831 8.27697 85.7284 4.24025 86.6214 0.180112H89.6943V0.179462ZM39.6707 10.5382V12.3364H33.5275V10.5382H39.6713H39.6707ZM88.1673 2.32041C88.1673 2.32041 87.0044 7.36843 86.8809 7.99601H89.4725L88.1673 2.32041ZM39.6707 5.35104V7.14991H33.5275V5.35039H39.6713L39.6707 5.35104ZM18.1005 1.98613H18.0927V5.94741C18.0927 5.94741 19.5463 5.95066 20.2051 5.88888C20.7878 5.83425 21.1799 5.49542 21.3562 4.94783L21.3887 4.83532C21.5226 4.31388 21.534 3.76851 21.4219 3.24196C21.269 2.50316 20.8886 2.11035 20.1433 2.03231C19.5333 1.96727 18.2137 1.98418 18.1005 1.98613ZM39.6707 0.189868V1.98939H33.5275V0.189868H39.6713H39.6707Z" fill="white"/>
</svg>
