<svg width="93" height="31" viewBox="0 0 93 31" fill="none" xmlns="http://www.w3.org/2000/svg">
<path d="M39.5764 15.8975C39.5764 20.2005 36.1607 23.3712 31.9689 23.3712C27.777 23.3712 24.3613 20.2005 24.3613 15.8975C24.3613 11.5643 27.777 8.42383 31.9689 8.42383C36.1607 8.42383 39.5764 11.5643 39.5764 15.8975ZM36.2462 15.8975C36.2462 13.2086 34.2665 11.3688 31.9689 11.3688C29.6712 11.3688 27.6915 13.2086 27.6915 15.8975C27.6915 18.5595 29.6712 20.4262 31.9689 20.4262C34.2665 20.4262 36.2462 18.5561 36.2462 15.8975Z" fill="white"/>
<path d="M55.9885 15.8975C55.9885 20.2005 52.5728 23.3712 48.381 23.3712C44.1891 23.3712 40.7734 20.2005 40.7734 15.8975C40.7734 11.5676 44.1891 8.42383 48.381 8.42383C52.5728 8.42383 55.9885 11.5643 55.9885 15.8975ZM52.6583 15.8975C52.6583 13.2086 50.6786 11.3688 48.381 11.3688C46.0833 11.3688 44.1037 13.2086 44.1037 15.8975C44.1037 18.5595 46.0833 20.4262 48.381 20.4262C50.6786 20.4262 52.6583 18.5561 52.6583 15.8975Z" fill="white"/>
<path d="M71.7158 8.87535V22.293C71.7158 27.8123 68.413 30.0665 64.5083 30.0665C60.8328 30.0665 58.6206 27.6438 57.7863 25.6625L60.6858 24.4731C61.202 25.6895 62.4671 27.1249 64.5049 27.1249C67.0043 27.1249 68.5532 25.6052 68.5532 22.7445V21.6696H68.4369C67.6915 22.576 66.2555 23.3678 64.4434 23.3678C60.6516 23.3678 57.1777 20.1128 57.1777 15.9245C57.1777 11.7058 60.6516 8.42383 64.4434 8.42383C66.2521 8.42383 67.6881 9.21568 68.4369 10.0951H68.5532V8.87872H71.7158V8.87535ZM68.7891 15.9245C68.7891 13.2928 67.0077 11.3688 64.7408 11.3688C62.4432 11.3688 60.5182 13.2928 60.5182 15.9245C60.5182 18.5292 62.4432 20.4262 64.7408 20.4262C67.0077 20.4262 68.7891 18.5292 68.7891 15.9245Z" fill="white"/>
<path d="M76.9298 1.01172V22.9139H73.6816V1.01172H76.9298Z" fill="white"/>
<path d="M89.5883 18.3568L92.1731 20.055C91.3388 21.2714 89.3284 23.3673 85.8546 23.3673C81.5465 23.3673 78.3291 20.0854 78.3291 15.8936C78.3291 11.4492 81.5738 8.41992 85.4819 8.41992C89.4173 8.41992 91.3423 11.5064 91.9714 13.1744L92.3167 14.0235L82.179 18.1613C82.9552 19.6608 84.1621 20.4257 85.8546 20.4257C87.5505 20.4257 88.7266 19.6035 89.5883 18.3568ZM81.632 15.6679L88.4087 12.8947C88.036 11.9613 86.9145 11.311 85.5947 11.311C83.9023 11.311 81.5465 12.7835 81.632 15.6679V15.6679Z" fill="white"/>
<path d="M12.066 13.9532V10.7824H22.908C23.014 11.3351 23.0687 11.9887 23.0687 12.6964C23.0687 15.0753 22.4089 18.0169 20.2822 20.1128C18.2136 22.2356 15.5706 23.3678 12.0694 23.3678C5.57996 23.3678 0.123047 18.1584 0.123047 11.763C0.123047 5.36755 5.57996 0.158203 12.0694 0.158203C15.6595 0.158203 18.217 1.54646 20.1386 3.35592L17.8683 5.59331C16.4904 4.31962 14.6235 3.32896 12.066 3.32896C7.32713 3.32896 3.6208 7.09277 3.6208 11.763C3.6208 16.4332 7.32713 20.197 12.066 20.197C15.1398 20.197 16.8904 18.9806 18.0119 17.8754C18.9214 16.9791 19.5197 15.6986 19.7556 13.9498L12.066 13.9532V13.9532Z" fill="white"/>
</svg>
