<svg width="16" height="16" viewBox="0 0 16 16" fill="none" xmlns="http://www.w3.org/2000/svg">
<path d="M15.7032 5.81851C15.632 5.62718 15.5041 5.46213 15.3366 5.34539C15.1691 5.22865 14.97 5.16578 14.7658 5.16517H10.7078C10.6388 5.16522 10.5714 5.14383 10.5151 5.10394C10.4587 5.06405 10.4161 5.00764 10.3932 4.94251L8.93651 0.81384C8.86516 0.623015 8.73722 0.458534 8.56983 0.342411C8.40244 0.226288 8.20357 0.164062 7.99984 0.164062C7.79611 0.164062 7.59724 0.226288 7.42985 0.342411C7.26246 0.458534 7.13452 0.623015 7.06317 0.81384L7.05984 0.824507L5.60651 4.94251C5.58362 5.00754 5.54113 5.06387 5.4849 5.10375C5.42866 5.14362 5.36145 5.16509 5.29251 5.16517H1.23317C1.02772 5.16502 0.827203 5.22815 0.658896 5.34599C0.49059 5.46382 0.362663 5.63063 0.292515 5.82374C0.222366 6.01685 0.213401 6.22688 0.266838 6.42527C0.320275 6.62365 0.433521 6.80076 0.591174 6.93251L4.04717 9.79917C4.09887 9.84207 4.1364 9.89959 4.15484 9.96419C4.17328 10.0288 4.17177 10.0974 4.15051 10.1612L2.69851 14.5152C2.6314 14.7165 2.63008 14.9339 2.69472 15.136C2.75937 15.3382 2.88663 15.5145 3.0581 15.6395C3.22958 15.7645 3.43637 15.8317 3.64857 15.8314C3.86077 15.8311 4.06738 15.7633 4.23851 15.6378L7.80251 13.0245C7.85966 12.9826 7.92866 12.9601 7.99951 12.9601C8.07035 12.9601 8.13936 12.9826 8.19651 13.0245L11.7592 15.6372C11.9302 15.7631 12.1369 15.8313 12.3493 15.8318C12.5617 15.8324 12.7688 15.7653 12.9405 15.6403C13.1122 15.5153 13.2397 15.3389 13.3044 15.1366C13.3691 14.9343 13.3678 14.7166 13.3005 14.5152L11.8485 10.1585C11.8272 10.0948 11.8257 10.0261 11.8442 9.96152C11.8626 9.89693 11.9001 9.83941 11.9518 9.79651L15.4145 6.92584C15.5701 6.79298 15.6813 6.61556 15.7329 6.41755C15.7845 6.21953 15.7741 6.01044 15.7032 5.81851V5.81851Z" fill="white"/>
</svg>
