<svg width="16" height="16" viewBox="0 0 16 16" fill="none" xmlns="http://www.w3.org/2000/svg">
<path d="M8.61401 0.680889C8.61401 0.500306 8.54228 0.327119 8.41458 0.199428C8.28689 0.0717363 8.11371 0 7.93312 0C7.72314 0.00127004 7.51857 0.06672 7.34685 0.187571C7.17512 0.308422 7.04446 0.478894 6.97239 0.676123L5.48941 4.87993C5.46588 4.94633 5.42234 5.00379 5.36478 5.0444C5.30722 5.08501 5.23848 5.10677 5.16803 5.10667H1.0221C0.812263 5.10651 0.607469 5.17099 0.435572 5.29134C0.263676 5.41168 0.13302 5.58206 0.0613749 5.77929C-0.0102701 5.97651 -0.0194268 6.19102 0.0351504 6.39364C0.0897276 6.59626 0.205389 6.77714 0.366405 6.9117L3.89954 9.83953C3.95234 9.88334 3.99066 9.94209 4.0095 10.0081C4.02833 10.074 4.02679 10.1442 4.00508 10.2092L2.51938 14.6555C2.4508 14.861 2.44938 15.083 2.51532 15.2894C2.58125 15.4959 2.71113 15.6759 2.88616 15.8037C3.0612 15.9314 3.27232 16.0002 3.48901 16C3.70569 15.9998 3.91671 15.9308 4.09155 15.8028L8.33553 12.6911C8.42174 12.6278 8.49182 12.545 8.54009 12.4495C8.58835 12.3541 8.61344 12.2486 8.61333 12.1416L8.61401 0.680889Z" fill="white"/>
</svg>
