<svg width="93" height="18" viewBox="0 0 93 18" fill="none" xmlns="http://www.w3.org/2000/svg">
<g clip-path="url(#clip0)">
<path d="M77.0242 17.1316C73.8285 17.1316 71.5971 14.8341 71.5971 11.5448C71.5683 10.0181 72.1395 8.54099 73.1879 7.43082C73.7098 6.90536 74.3322 6.49056 75.0181 6.21123C75.704 5.93191 76.4391 5.79379 77.1796 5.80516V5.95812C75.8066 6.60483 74.8479 8.53397 74.8479 10.6497C74.8479 13.2874 76.3548 14.8616 78.8799 14.8616C79.9005 14.9075 80.9043 14.5903 81.7133 13.9665V14.1629C81.3215 15.0723 80.6642 15.8422 79.8275 16.3719C78.9909 16.9016 78.0138 17.1663 77.0242 17.1316V17.1316ZM49.911 17.1316C47.8405 17.1316 46.5545 15.777 46.5545 13.5964V7.48589H44.7018V7.24605L49.4093 2.94663H49.6706V12.6792C49.6706 14.2779 50.5424 15.2324 52.0029 15.2324C52.4799 15.2281 52.9524 15.1394 53.3985 14.9706V15.1229C53.0323 15.7314 52.5235 16.2417 51.916 16.6097C51.307 16.9614 50.6142 17.1418 49.911 17.1316ZM35.6135 17.1316C35.0204 17.1339 34.4348 16.9998 33.9018 16.7395C33.3689 16.4793 32.903 16.0999 32.5402 15.6307C31.7382 14.544 31.3237 13.2198 31.363 11.8697C31.3299 10.2658 31.9098 8.70953 32.9844 7.51832C33.5005 6.97049 34.1244 6.53546 34.8168 6.24062C35.5093 5.94578 36.2553 5.79751 37.0079 5.80516C37.634 5.79127 38.2566 5.90256 38.8391 6.13249V6.30687C38.2658 6.3043 37.699 6.42923 37.1799 6.67261C36.6607 6.91599 36.2022 7.27173 35.8374 7.7141C35.0383 8.72899 34.6198 9.9917 34.6547 11.283C34.6547 13.4856 35.8643 15.036 37.5971 15.058C38.053 15.0552 38.5017 14.943 38.9052 14.7307V14.861C38.1514 16.3466 37.0134 17.1316 35.6135 17.1316ZM24.6939 17.1316C21.4989 17.1316 19.2669 14.8341 19.2669 11.5448C19.2377 10.0169 19.8114 8.53891 20.8638 7.43082C21.388 6.90562 22.0124 6.49109 22.6999 6.21183C23.3873 5.93257 24.1239 5.79428 24.8659 5.80516V5.95812C23.4794 6.61156 22.5121 8.54009 22.5121 10.6497C22.5121 13.2476 24.057 14.8616 26.5448 14.8616C27.5651 14.9072 28.5687 14.5901 29.3776 13.9665V14.1629C28.9907 15.0748 28.3353 15.8473 27.4987 16.3776C26.662 16.9079 25.6837 17.1709 24.6939 17.1316V17.1316ZM5.23064 17.1316C3.16016 17.1316 1.87407 15.777 1.87407 13.5964V7.48589H0V7.24605L4.72954 2.94602H4.9908V12.6792C4.9908 14.2779 5.85411 15.2324 7.3005 15.2324C7.78437 15.2271 8.26371 15.1385 8.71753 14.9706V15.1229C8.34247 15.7299 7.82899 16.2394 7.21912 16.6097C6.61585 16.9607 5.92852 17.1411 5.23064 17.1316V17.1316ZM65.8642 17.0661H65.6464L61.1359 6.02297H64.4924L67.5437 13.5523L65.8654 17.0655L65.8642 17.0661ZM59.7837 17.0661H59.5659L55.0548 6.02297H58.4107L61.462 13.5523L59.7843 17.0655L59.7837 17.0661ZM93 16.9138H89.8833V0.371388L93 0V16.9131V16.9138ZM87.0939 16.9138H83.9772V0.371388L87.0939 0V16.9131V16.9138ZM42.5659 16.9138H39.4491V6.15391L42.5659 5.80455V16.9131V16.9138ZM13.9708 16.9138H10.8541V6.15391L13.9708 5.80455V16.9131V16.9138ZM77.2861 12.3739C76.7912 12.3735 76.299 12.3001 75.8256 12.1561V12.0037C77.439 11.8673 78.7013 10.1609 78.7013 8.11914C78.7013 7.00743 78.3953 6.28056 77.7835 5.95873V5.80577C78.7945 5.78703 79.7835 6.10159 80.598 6.70089C80.9309 6.95066 81.2019 7.27374 81.39 7.6451C81.578 8.01646 81.6779 8.42612 81.6821 8.84234C81.6681 9.32862 81.5436 9.80532 81.318 10.2363C81.0924 10.6673 80.7717 11.0414 80.3801 11.3301C79.4974 12.0196 78.4061 12.3878 77.2861 12.3739V12.3739ZM24.9772 12.3739C24.4822 12.3754 23.9898 12.302 23.5168 12.1561V12.0037C25.118 11.8661 26.3722 10.1596 26.3722 8.11914C26.3722 7.00804 26.0663 6.28362 25.4545 5.95873V5.80577C26.4655 5.78708 27.4545 6.10163 28.2689 6.70089C28.6019 6.95066 28.8729 7.27374 29.0609 7.6451C29.2489 8.01646 29.3489 8.42612 29.3531 8.84234C29.3399 9.32767 29.2168 9.80367 28.9931 10.2346C28.7693 10.6655 28.4509 11.04 28.0615 11.3301C27.1828 12.0201 26.0944 12.3884 24.9772 12.3739V12.3739ZM68.7851 10.2324H68.6328C68.5419 8.77672 68.1874 7.34959 67.5865 6.02053H70.9211L68.7851 10.2318V10.2324ZM14.4505 9.12195V9.01305C14.5642 8.14539 14.9169 7.32644 15.4692 6.64766C15.7268 6.36924 16.0415 6.1498 16.3918 6.00438C16.7421 5.85896 17.1197 5.791 17.4987 5.80516C17.7573 5.79794 18.0153 5.83477 18.2617 5.91407V8.44342C17.8693 8.27837 17.4448 8.20372 17.0196 8.22499C16.5528 8.18859 16.0835 8.24922 15.6412 8.40306C15.199 8.5569 14.7933 8.80063 14.4499 9.11889L14.4505 9.12195ZM53.4634 7.48528H50.4341V6.02297H53.4634V7.48466V7.48528ZM8.78361 7.48528H5.75132V6.02297H8.78116V7.48466L8.78361 7.48528Z" fill="white"/>
</g>
<defs>
<clipPath id="clip0">
<rect width="93" height="17.1316" fill="white"/>
</clipPath>
</defs>
</svg>
